<svg xmlns="http://www.w3.org/2000/svg" viewBox="0 0 600 752"><defs><pattern id="z" width="84" height="84" patternUnits="userSpaceOnUse"><rect width="84" height="84" fill="rgba(38,82,94,0.38)"/><g stroke="rgba(237,209,136,0.24)" stroke-width="1.15" stroke-linejoin="round"><path d="M0 0H14L0 14ZM84 0H70L84 14ZM84 84H70L84 70ZM0 84H14L0 70Z" fill="rgba(232,226,213,0.14)"/><path d="M42 0L49 7L42 14L35 7ZM84 42L77 49L70 42L77 35ZM42 84L35 77L42 70L49 77ZM0 42L7 35L14 42L7 49Z" fill="rgba(154,123,42,0.42)"/><path d="M42.0 14.0 L46.6 30.9 L61.8 22.2 L53.1 37.4 L70.0 42.0 L53.1 46.6 L61.8 61.8 L46.6 53.1 L42.0 70.0 L37.4 53.1 L22.2 61.8 L30.9 46.6 L14.0 42.0 L30.9 37.4 L22.2 22.2 L37.4 30.9Z" fill="rgba(27,91,65,0.42)"/><path d="M50.3 38.6 L50.3 45.4 L45.4 50.3 L38.6 50.3 L33.7 45.4 L33.7 38.6 L38.6 33.7 L45.4 33.7Z" fill="rgba(154,123,42,0.42)"/><path d="M14 0L22.2 22.2L0 14M70 0L61.8 22.2L84 14M84 70L61.8 61.8L70 84M14 84L22.2 61.8L0 70" fill="none"/></g></pattern><linearGradient id="sharp-fade" x1="0" y1="0" x2="0" y2="1"><stop offset="0" stop-color="white"/><stop offset="56%" stop-color="white"/><stop offset="66%" stop-color="#aaa"/><stop offset="78%" stop-color="black"/></linearGradient><linearGradient id="soft-fade" x1="0" y1="0" x2="0" y2="1"><stop offset="0" stop-color="black"/><stop offset="54%" stop-color="black"/><stop offset="62%" stop-color="#3a3a3a"/><stop offset="72%" stop-color="#333"/><stop offset="82%" stop-color="black"/></linearGradient><linearGradient id="haze-fade" x1="0" y1="0" x2="0" y2="1"><stop offset="0" stop-color="black"/><stop offset="64%" stop-color="black"/><stop offset="72%" stop-color="#222"/><stop offset="80%" stop-color="#1c1c1c"/><stop offset="86%" stop-color="black"/><stop offset="100%" stop-color="black"/></linearGradient><mask id="sharp"><rect width="600" height="752" fill="url(#sharp-fade)"/></mask><mask id="soft"><rect width="600" height="752" fill="url(#soft-fade)"/></mask><mask id="haze"><rect width="600" height="752" fill="url(#haze-fade)"/></mask><filter id="soft-blur" x="-20" y="-20" width="640" height="792" filterUnits="userSpaceOnUse"><feGaussianBlur stdDeviation="1.8"/></filter><filter id="haze-blur" x="-20" y="-20" width="640" height="792" filterUnits="userSpaceOnUse"><feGaussianBlur stdDeviation="4.2"/></filter><g id="arch"><path d="M30 28H570V724H30Z M95 724V420A35.9 35.9 0 0 0 99.6 358.3A35.9 35.9 0 0 0 113.2 298A35.9 35.9 0 0 0 135.5 240.3A35.9 35.9 0 0 0 166.1 186.6A35.9 35.9 0 0 0 204.3 137.9A35.9 35.9 0 0 0 249.3 95.4A41.1 41.1 0 0 0 300 46A41.1 41.1 0 0 0 350.7 95.4A35.9 35.9 0 0 0 395.7 137.9A35.9 35.9 0 0 0 433.9 186.6A35.9 35.9 0 0 0 464.5 240.3A35.9 35.9 0 0 0 486.8 298A35.9 35.9 0 0 0 500.4 358.3A35.9 35.9 0 0 0 505 420V724Z" fill="rgba(10,18,17,0.58)" fill-rule="evenodd"/><path d="M30 28H570V724H30Z M95 724V420A35.9 35.9 0 0 0 99.6 358.3A35.9 35.9 0 0 0 113.2 298A35.9 35.9 0 0 0 135.5 240.3A35.9 35.9 0 0 0 166.1 186.6A35.9 35.9 0 0 0 204.3 137.9A35.9 35.9 0 0 0 249.3 95.4A41.1 41.1 0 0 0 300 46A41.1 41.1 0 0 0 350.7 95.4A35.9 35.9 0 0 0 395.7 137.9A35.9 35.9 0 0 0 433.9 186.6A35.9 35.9 0 0 0 464.5 240.3A35.9 35.9 0 0 0 486.8 298A35.9 35.9 0 0 0 500.4 358.3A35.9 35.9 0 0 0 505 420V724Z" fill="url(#z)" fill-rule="evenodd" opacity=".9"/><g fill="none" stroke="rgba(217,180,74,0.50)" stroke-linejoin="round"><path d="M30 724V28H570V724" stroke-width="1.5"/><path d="M36 724V34H564V724" stroke-width="1"/><path d="M95 724V420A35.9 35.9 0 0 0 99.6 358.3A35.9 35.9 0 0 0 113.2 298A35.9 35.9 0 0 0 135.5 240.3A35.9 35.9 0 0 0 166.1 186.6A35.9 35.9 0 0 0 204.3 137.9A35.9 35.9 0 0 0 249.3 95.4A41.1 41.1 0 0 0 300 46A41.1 41.1 0 0 0 350.7 95.4A35.9 35.9 0 0 0 395.7 137.9A35.9 35.9 0 0 0 433.9 186.6A35.9 35.9 0 0 0 464.5 240.3A35.9 35.9 0 0 0 486.8 298A35.9 35.9 0 0 0 500.4 358.3A35.9 35.9 0 0 0 505 420V724" stroke-width="2.8"/><path d="M36 420H95M505 420H564" stroke-width="1.2"/><path d="M36 428H88M512 428H564" stroke-width="1.2"/><path d="M79 428V724M521 428V724" stroke-width="1"/></g></g></defs><use href="#arch" mask="url(#sharp)"/><use href="#arch" mask="url(#soft)" filter="url(#soft-blur)"/><use href="#arch" mask="url(#haze)" filter="url(#haze-blur)"/></svg>
