<svg xmlns="http://www.w3.org/2000/svg" viewBox="0 0 600 752"><defs><pattern id="z" width="54" height="54" patternUnits="userSpaceOnUse"><g fill="none" stroke="rgba(237,209,136,0.19)" stroke-width="1.15" stroke-linejoin="round"><path d="M54.0 27.0 L7.9 46.1 L27.0 0.0 L46.1 46.1 L0.0 27.0 L46.1 7.9 L27.0 54.0 L7.9 7.9 Z"/><path d="M7.9 7.9 L-7.9 7.9 L-7.9 -7.9 L7.9 -7.9 Z"/></g></pattern><linearGradient id="fade" x1="0" y1="0" x2="0" y2="1"><stop offset="0" stop-color="white"/><stop offset="76%" stop-color="white"/><stop offset="100%" stop-color="black"/></linearGradient><mask id="m"><path d="M30 28H570V724H30Z M126 724V416C114 392 104 367 93 332C110 321 110 304 95 294C80 284 81 264 100 258C119 252 122 237 108 226C120 207 141 191 174 183C158 168 164 145 186 143C210 141 225 125 228 105C232 82 253 80 268 92C285 72 295 34 300 14C305 34 315 72 332 92C347 80 368 82 372 105C375 125 390 141 414 143C436 145 442 168 426 183C459 191 480 207 492 226C478 237 481 252 500 258C519 264 520 284 505 294C490 304 490 321 507 332C496 367 486 392 474 416V724Z" fill="url(#fade)" fill-rule="evenodd"/></mask></defs><g mask="url(#m)"><path d="M30 28H570V724H30Z M126 724V416C114 392 104 367 93 332C110 321 110 304 95 294C80 284 81 264 100 258C119 252 122 237 108 226C120 207 141 191 174 183C158 168 164 145 186 143C210 141 225 125 228 105C232 82 253 80 268 92C285 72 295 34 300 14C305 34 315 72 332 92C347 80 368 82 372 105C375 125 390 141 414 143C436 145 442 168 426 183C459 191 480 207 492 226C478 237 481 252 500 258C519 264 520 284 505 294C490 304 490 321 507 332C496 367 486 392 474 416V724Z" fill="rgba(217,180,74,0.035)" fill-rule="evenodd"/><path d="M30 28H570V724H30Z M126 724V416C114 392 104 367 93 332C110 321 110 304 95 294C80 284 81 264 100 258C119 252 122 237 108 226C120 207 141 191 174 183C158 168 164 145 186 143C210 141 225 125 228 105C232 82 253 80 268 92C285 72 295 34 300 14C305 34 315 72 332 92C347 80 368 82 372 105C375 125 390 141 414 143C436 145 442 168 426 183C459 191 480 207 492 226C478 237 481 252 500 258C519 264 520 284 505 294C490 304 490 321 507 332C496 367 486 392 474 416V724Z" fill="url(#z)" fill-rule="evenodd" opacity=".78"/></g><g fill="none" stroke-linejoin="round" vector-effect="non-scaling-stroke"><path d="M30 724V28H570V724M42 724V74H558V724" stroke="rgba(217,180,74,0.50)" stroke-width="1.4"/><path d="M30 75H570M42 82H558" stroke="rgba(217,180,74,0.50)" stroke-width="1.1"/><g stroke="rgba(217,180,74,0.50)" stroke-width="1"><path d="M52 51l13 -13 13 13-13 13Z"/><path d="M97 51l13 -13 13 13-13 13Z"/><path d="M142 51l13 -13 13 13-13 13Z"/><path d="M187 51l13 -13 13 13-13 13Z"/><path d="M232 51l13 -13 13 13-13 13Z"/><path d="M277 51l13 -13 13 13-13 13Z"/><path d="M322 51l13 -13 13 13-13 13Z"/><path d="M367 51l13 -13 13 13-13 13Z"/><path d="M412 51l13 -13 13 13-13 13Z"/><path d="M457 51l13 -13 13 13-13 13Z"/><path d="M502 51l13 -13 13 13-13 13Z"/><path d="M547 51l13 -13 13 13-13 13Z"/></g><path d="M126 724V416C114 392 104 367 93 332C110 321 110 304 95 294C80 284 81 264 100 258C119 252 122 237 108 226C120 207 141 191 174 183C158 168 164 145 186 143C210 141 225 125 228 105C232 82 253 80 268 92C285 72 295 34 300 14C305 34 315 72 332 92C347 80 368 82 372 105C375 125 390 141 414 143C436 145 442 168 426 183C459 191 480 207 492 226C478 237 481 252 500 258C519 264 520 284 505 294C490 304 490 321 507 332C496 367 486 392 474 416V724" stroke="rgba(217,180,74,0.50)" stroke-width="3.2"/><path d="M51 706V424M92 706V435M508 706V435M549 706V424" stroke="rgba(217,180,74,0.50)" stroke-width="1.2"/><path d="M42 424H110M490 424H558M42 706H126M474 706H558" stroke="rgba(217,180,74,0.50)" stroke-width="1.2"/></g></svg>
