<svg xmlns="http://www.w3.org/2000/svg" viewBox="0 0 600 752"><defs><pattern id="z" width="54" height="54" patternUnits="userSpaceOnUse"><g fill="none" stroke="rgba(138,107,30,0.24)" stroke-width="1.15" stroke-linejoin="round"><path d="M54.0 27.0 L7.9 46.1 L27.0 0.0 L46.1 46.1 L0.0 27.0 L46.1 7.9 L27.0 54.0 L7.9 7.9 Z"/><path d="M7.9 7.9 L-7.9 7.9 L-7.9 -7.9 L7.9 -7.9 Z"/></g></pattern><linearGradient id="fade" x1="0" y1="0" x2="0" y2="1"><stop offset="0" stop-color="white"/><stop offset="76%" stop-color="white"/><stop offset="100%" stop-color="black"/></linearGradient><mask id="m"><path d="M30 28H570V724H30Z M95 724V420A35.9 35.9 0 0 0 99.6 358.3A35.9 35.9 0 0 0 113.2 298A35.9 35.9 0 0 0 135.5 240.3A35.9 35.9 0 0 0 166.1 186.6A35.9 35.9 0 0 0 204.3 137.9A35.9 35.9 0 0 0 249.3 95.4A41.1 41.1 0 0 0 300 46A41.1 41.1 0 0 0 350.7 95.4A35.9 35.9 0 0 0 395.7 137.9A35.9 35.9 0 0 0 433.9 186.6A35.9 35.9 0 0 0 464.5 240.3A35.9 35.9 0 0 0 486.8 298A35.9 35.9 0 0 0 500.4 358.3A35.9 35.9 0 0 0 505 420V724Z" fill="url(#fade)" fill-rule="evenodd"/></mask></defs><g mask="url(#m)"><path d="M30 28H570V724H30Z M95 724V420A35.9 35.9 0 0 0 99.6 358.3A35.9 35.9 0 0 0 113.2 298A35.9 35.9 0 0 0 135.5 240.3A35.9 35.9 0 0 0 166.1 186.6A35.9 35.9 0 0 0 204.3 137.9A35.9 35.9 0 0 0 249.3 95.4A41.1 41.1 0 0 0 300 46A41.1 41.1 0 0 0 350.7 95.4A35.9 35.9 0 0 0 395.7 137.9A35.9 35.9 0 0 0 433.9 186.6A35.9 35.9 0 0 0 464.5 240.3A35.9 35.9 0 0 0 486.8 298A35.9 35.9 0 0 0 500.4 358.3A35.9 35.9 0 0 0 505 420V724Z" fill="rgba(184,144,28,0.045)" fill-rule="evenodd"/><path d="M30 28H570V724H30Z M95 724V420A35.9 35.9 0 0 0 99.6 358.3A35.9 35.9 0 0 0 113.2 298A35.9 35.9 0 0 0 135.5 240.3A35.9 35.9 0 0 0 166.1 186.6A35.9 35.9 0 0 0 204.3 137.9A35.9 35.9 0 0 0 249.3 95.4A41.1 41.1 0 0 0 300 46A41.1 41.1 0 0 0 350.7 95.4A35.9 35.9 0 0 0 395.7 137.9A35.9 35.9 0 0 0 433.9 186.6A35.9 35.9 0 0 0 464.5 240.3A35.9 35.9 0 0 0 486.8 298A35.9 35.9 0 0 0 500.4 358.3A35.9 35.9 0 0 0 505 420V724Z" fill="url(#z)" fill-rule="evenodd" opacity=".78"/></g><g fill="none" stroke="rgba(138,107,30,0.62)" stroke-linejoin="round"><path d="M30 724V28H570V724" stroke-width="1.5"/><path d="M36 724V34H564V724" stroke-width="1"/><path d="M95 724V420A35.9 35.9 0 0 0 99.6 358.3A35.9 35.9 0 0 0 113.2 298A35.9 35.9 0 0 0 135.5 240.3A35.9 35.9 0 0 0 166.1 186.6A35.9 35.9 0 0 0 204.3 137.9A35.9 35.9 0 0 0 249.3 95.4A41.1 41.1 0 0 0 300 46A41.1 41.1 0 0 0 350.7 95.4A35.9 35.9 0 0 0 395.7 137.9A35.9 35.9 0 0 0 433.9 186.6A35.9 35.9 0 0 0 464.5 240.3A35.9 35.9 0 0 0 486.8 298A35.9 35.9 0 0 0 500.4 358.3A35.9 35.9 0 0 0 505 420V724" stroke-width="2.8"/><path d="M36 420H95M505 420H564" stroke-width="1.2"/><path d="M36 428H88M512 428H564" stroke-width="1.2"/><path d="M79 428V724M521 428V724" stroke-width="1"/></g></svg>
