<svg xmlns="http://www.w3.org/2000/svg" viewBox="-1.10 -1.10 202.20 202.20"><defs><linearGradient id="leaf" x1="0%" y1="22%" x2="100%" y2="78%"><stop offset="0%" stop-color="#9a7b2a"/><stop offset="50%" stop-color="#edd188"/><stop offset="100%" stop-color="#9a7b2a"/></linearGradient><g id="o" fill="none" stroke-linecap="round" stroke-linejoin="round"><path d="M197.0 100.0 L196.9 104.2 L196.6 108.5 L196.2 112.7 L195.5 116.8 L194.7 121.0 L193.7 125.1 L192.5 129.2 L191.2 133.2 L189.6 137.1 L187.9 141.0 L186.0 144.8 L184.0 148.5 L181.8 152.1 L179.5 155.6 L177.0 159.0 L174.3 162.4 L171.5 165.5 L168.6 168.6 L165.5 171.5 L162.4 174.3 L159.0 177.0 L155.6 179.5 L152.1 181.8 L148.5 184.0 L144.8 186.0 L141.0 187.9 L137.1 189.6 L133.2 191.2 L129.2 192.5 L125.1 193.7 L121.0 194.7 L116.8 195.5 L112.7 196.2 L108.5 196.6 L104.2 196.9 L100.0 197.0 L95.8 196.9 L91.5 196.6 L87.3 196.2 L83.2 195.5 L79.0 194.7 L74.9 193.7 L70.8 192.5 L66.8 191.2 L62.9 189.6 L59.0 187.9 L55.2 186.0 L51.5 184.0 L47.9 181.8 L44.4 179.5 L41.0 177.0 L37.6 174.3 L34.5 171.5 L31.4 168.6 L28.5 165.5 L25.7 162.4 L23.0 159.0 L20.5 155.6 L18.2 152.1 L16.0 148.5 L14.0 144.8 L12.1 141.0 L10.4 137.1 L8.8 133.2 L7.5 129.2 L6.3 125.1 L5.3 121.0 L4.5 116.8 L3.8 112.7 L3.4 108.5 L3.1 104.2 L3.0 100.0 L3.1 95.8 L3.4 91.5 L3.8 87.3 L4.5 83.2 L5.3 79.0 L6.3 74.9 L7.5 70.8 L8.8 66.8 L10.4 62.9 L12.1 59.0 L14.0 55.2 L16.0 51.5 L18.2 47.9 L20.5 44.4 L23.0 41.0 L25.7 37.6 L28.5 34.5 L31.4 31.4 L34.5 28.5 L37.6 25.7 L41.0 23.0 L44.4 20.5 L47.9 18.2 L51.5 16.0 L55.2 14.0 L59.0 12.1 L62.9 10.4 L66.8 8.8 L70.8 7.5 L74.9 6.3 L79.0 5.3 L83.2 4.5 L87.3 3.8 L91.5 3.4 L95.8 3.1 L100.0 3.0 L104.2 3.1 L108.5 3.4 L112.7 3.8 L116.8 4.5 L121.0 5.3 L125.1 6.3 L129.2 7.5 L133.2 8.8 L137.1 10.4 L141.0 12.1 L144.8 14.0 L148.5 16.0 L152.1 18.2 L155.6 20.5 L159.0 23.0 L162.4 25.7 L165.5 28.5 L168.6 31.4 L171.5 34.5 L174.3 37.6 L177.0 41.0 L179.5 44.4 L181.8 47.9 L184.0 51.5 L186.0 55.2 L187.9 59.0 L189.6 62.9 L191.2 66.8 L192.5 70.8 L193.7 74.9 L194.7 79.0 L195.5 83.2 L196.2 87.3 L196.6 91.5 L196.9 95.8 Z" stroke-width="1"/><path d="M171.8 100.0 L171.7 103.1 L171.5 106.3 L171.2 109.4 L170.7 112.5 L170.1 115.5 L169.3 118.6 L168.4 121.6 L167.4 124.5 L166.3 127.5 L165.0 130.3 L163.7 133.1 L162.2 135.9 L160.5 138.6 L158.8 141.2 L156.9 143.7 L155.0 146.1 L152.9 148.5 L150.7 150.7 L148.5 152.9 L146.1 155.0 L143.7 156.9 L141.2 158.8 L138.6 160.5 L135.9 162.2 L133.1 163.7 L130.3 165.0 L127.5 166.3 L124.5 167.4 L121.6 168.4 L118.6 169.3 L115.5 170.1 L112.5 170.7 L109.4 171.2 L106.3 171.5 L103.1 171.7 L100.0 171.8 L96.9 171.7 L93.7 171.5 L90.6 171.2 L87.5 170.7 L84.5 170.1 L81.4 169.3 L78.4 168.4 L75.5 167.4 L72.5 166.3 L69.7 165.0 L66.9 163.7 L64.1 162.2 L61.4 160.5 L58.8 158.8 L56.3 156.9 L53.9 155.0 L51.5 152.9 L49.3 150.7 L47.1 148.5 L45.0 146.1 L43.1 143.7 L41.2 141.2 L39.5 138.6 L37.8 135.9 L36.3 133.1 L35.0 130.3 L33.7 127.5 L32.6 124.5 L31.6 121.6 L30.7 118.6 L29.9 115.5 L29.3 112.5 L28.8 109.4 L28.5 106.3 L28.3 103.1 L28.2 100.0 L28.3 96.9 L28.5 93.7 L28.8 90.6 L29.3 87.5 L29.9 84.5 L30.7 81.4 L31.6 78.4 L32.6 75.5 L33.7 72.5 L35.0 69.7 L36.3 66.9 L37.8 64.1 L39.5 61.4 L41.2 58.8 L43.1 56.3 L45.0 53.9 L47.1 51.5 L49.3 49.3 L51.5 47.1 L53.9 45.0 L56.3 43.1 L58.8 41.2 L61.4 39.5 L64.1 37.8 L66.9 36.3 L69.7 35.0 L72.5 33.7 L75.5 32.6 L78.4 31.6 L81.4 30.7 L84.5 29.9 L87.5 29.3 L90.6 28.8 L93.7 28.5 L96.9 28.3 L100.0 28.2 L103.1 28.3 L106.3 28.5 L109.4 28.8 L112.5 29.3 L115.5 29.9 L118.6 30.7 L121.6 31.6 L124.5 32.6 L127.5 33.7 L130.3 35.0 L133.1 36.3 L135.9 37.8 L138.6 39.5 L141.2 41.2 L143.7 43.1 L146.1 45.0 L148.5 47.1 L150.7 49.3 L152.9 51.5 L155.0 53.9 L156.9 56.3 L158.8 58.8 L160.5 61.4 L162.2 64.1 L163.7 66.9 L165.0 69.7 L166.3 72.5 L167.4 75.5 L168.4 78.4 L169.3 81.4 L170.1 84.5 L170.7 87.5 L171.2 90.6 L171.5 93.7 L171.7 96.9 Z" stroke-width="1"/><path d="M100.0 37.0 L131.5 154.5 L45.5 68.5 L163.0 100.0 L45.5 131.5 L131.5 45.5 L100.0 163.0 L68.5 45.5 L154.5 131.5 L37.0 100.0 L154.5 68.5 L68.5 154.5 Z" stroke-width="2.2"/><path d="M114.3 46.8 L105.0 56.9 L107.4 72.3 L117.2 60.2 Z" stroke-width="2.2"/><path d="M138.9 61.1 L125.9 65.2 L120.2 79.8 L134.8 74.1 Z" stroke-width="2.2"/><path d="M153.2 85.7 L139.8 82.8 L127.7 92.6 L143.1 95.0 Z" stroke-width="2.2"/><path d="M153.2 114.3 L143.1 105.0 L127.7 107.4 L139.8 117.2 Z" stroke-width="2.2"/><path d="M138.9 138.9 L134.8 125.9 L120.2 120.2 L125.9 134.8 Z" stroke-width="2.2"/><path d="M114.3 153.2 L117.2 139.8 L107.4 127.7 L105.0 143.1 Z" stroke-width="2.2"/><path d="M85.7 153.2 L95.0 143.1 L92.6 127.7 L82.8 139.8 Z" stroke-width="2.2"/><path d="M61.1 138.9 L74.1 134.8 L79.8 120.2 L65.2 125.9 Z" stroke-width="2.2"/><path d="M46.8 114.3 L60.2 117.2 L72.3 107.4 L56.9 105.0 Z" stroke-width="2.2"/><path d="M46.8 85.7 L56.9 95.0 L72.3 92.6 L60.2 82.8 Z" stroke-width="2.2"/><path d="M61.1 61.1 L65.2 74.1 L79.8 79.8 L74.1 65.2 Z" stroke-width="2.2"/><path d="M85.7 46.8 L82.8 60.2 L92.6 72.3 L95.0 56.9 Z" stroke-width="2.2"/><path d="M115.1 100.0 L115.1 100.7 L115.0 101.3 L115.0 102.0 L114.9 102.6 L114.7 103.3 L114.6 103.9 L114.4 104.5 L114.2 105.2 L113.9 105.8 L113.7 106.4 L113.4 107.0 L113.1 107.5 L112.7 108.1 L112.4 108.7 L112.0 109.2 L111.6 109.7 L111.1 110.2 L110.7 110.7 L110.2 111.1 L109.7 111.6 L109.2 112.0 L108.7 112.4 L108.1 112.7 L107.5 113.1 L107.0 113.4 L106.4 113.7 L105.8 113.9 L105.2 114.2 L104.5 114.4 L103.9 114.6 L103.3 114.7 L102.6 114.9 L102.0 115.0 L101.3 115.0 L100.7 115.1 L100.0 115.1 L99.3 115.1 L98.7 115.0 L98.0 115.0 L97.4 114.9 L96.7 114.7 L96.1 114.6 L95.5 114.4 L94.8 114.2 L94.2 113.9 L93.6 113.7 L93.0 113.4 L92.5 113.1 L91.9 112.7 L91.3 112.4 L90.8 112.0 L90.3 111.6 L89.8 111.1 L89.3 110.7 L88.9 110.2 L88.4 109.7 L88.0 109.2 L87.6 108.7 L87.3 108.1 L86.9 107.5 L86.6 107.0 L86.3 106.4 L86.1 105.8 L85.8 105.2 L85.6 104.5 L85.4 103.9 L85.3 103.3 L85.1 102.6 L85.0 102.0 L85.0 101.3 L84.9 100.7 L84.9 100.0 L84.9 99.3 L85.0 98.7 L85.0 98.0 L85.1 97.4 L85.3 96.7 L85.4 96.1 L85.6 95.5 L85.8 94.8 L86.1 94.2 L86.3 93.6 L86.6 93.0 L86.9 92.5 L87.3 91.9 L87.6 91.3 L88.0 90.8 L88.4 90.3 L88.9 89.8 L89.3 89.3 L89.8 88.9 L90.3 88.4 L90.8 88.0 L91.3 87.6 L91.9 87.3 L92.5 86.9 L93.0 86.6 L93.6 86.3 L94.2 86.1 L94.8 85.8 L95.5 85.6 L96.1 85.4 L96.7 85.3 L97.4 85.1 L98.0 85.0 L98.7 85.0 L99.3 84.9 L100.0 84.9 L100.7 84.9 L101.3 85.0 L102.0 85.0 L102.6 85.1 L103.3 85.3 L103.9 85.4 L104.5 85.6 L105.2 85.8 L105.8 86.1 L106.4 86.3 L107.0 86.6 L107.5 86.9 L108.1 87.3 L108.7 87.6 L109.2 88.0 L109.7 88.4 L110.2 88.9 L110.7 89.3 L111.1 89.8 L111.6 90.3 L112.0 90.8 L112.4 91.3 L112.7 91.9 L113.1 92.5 L113.4 93.0 L113.7 93.6 L113.9 94.2 L114.2 94.8 L114.4 95.5 L114.6 96.1 L114.7 96.7 L114.9 97.4 L115.0 98.0 L115.0 98.7 L115.1 99.3 Z" stroke-width="1"/><path d="M100.0 77.4 L119.6 88.7 L119.6 111.3 L100.0 122.6 L80.4 111.3 L80.4 88.7 Z" stroke-width="1"/><path d="M111.3 80.4 L122.6 100.0 L111.3 119.6 L88.7 119.6 L77.4 100.0 L88.7 80.4 Z" stroke-width="1"/><g stroke="none"><circle cx="100.0" cy="15.6" r="3.2"/><circle cx="142.2" cy="26.9" r="3.2"/><circle cx="173.1" cy="57.8" r="3.2"/><circle cx="184.4" cy="100.0" r="3.2"/><circle cx="173.1" cy="142.2" r="3.2"/><circle cx="142.2" cy="173.1" r="3.2"/><circle cx="100.0" cy="184.4" r="3.2"/><circle cx="57.8" cy="173.1" r="3.2"/><circle cx="26.9" cy="142.2" r="3.2"/><circle cx="15.6" cy="100.0" r="3.2"/><circle cx="26.9" cy="57.8" r="3.2"/><circle cx="57.8" cy="26.9" r="3.2"/><circle cx="100.0" cy="100.0" r="5.6"/></g></g></defs><use href="#o" x="0.9" y="0.9" stroke="rgba(0,0,0,0.40)" fill="rgba(0,0,0,0.40)"/><use href="#o" x="-0.9" y="-0.9" stroke="rgba(255,255,255,0.12)" fill="rgba(255,255,255,0.12)"/><use href="#o" stroke="url(#leaf)" fill="url(#leaf)"/></svg>
