<svg xmlns="http://www.w3.org/2000/svg" viewBox="-26.15 -26.15 252.30 252.30"><defs><linearGradient id="leaf" x1="0%" y1="22%" x2="100%" y2="78%"><stop offset="0%" stop-color="#8a6b1e"/><stop offset="50%" stop-color="#c8a63c"/><stop offset="100%" stop-color="#8a6b1e"/></linearGradient><g id="o" fill="none" stroke-linecap="round" stroke-linejoin="round"><path d="M192.0 100.0 L191.8 106.0 L191.2 112.0 L190.2 117.9 L188.9 123.8 L187.1 129.6 L185.0 135.2 L182.5 140.7 L179.7 146.0 L176.5 151.1 L173.0 156.0 L169.2 160.7 L165.1 165.1 L160.7 169.2 L156.0 173.0 L151.1 176.5 L146.0 179.7 L140.7 182.5 L135.2 185.0 L129.6 187.1 L123.8 188.9 L117.9 190.2 L112.0 191.2 L106.0 191.8 L100.0 192.0 L94.0 191.8 L88.0 191.2 L82.1 190.2 L76.2 188.9 L70.4 187.1 L64.8 185.0 L59.3 182.5 L54.0 179.7 L48.9 176.5 L44.0 173.0 L39.3 169.2 L34.9 165.1 L30.8 160.7 L27.0 156.0 L23.5 151.1 L20.3 146.0 L17.5 140.7 L15.0 135.2 L12.9 129.6 L11.1 123.8 L9.8 117.9 L8.8 112.0 L8.2 106.0 L8.0 100.0 L8.2 94.0 L8.8 88.0 L9.8 82.1 L11.1 76.2 L12.9 70.4 L15.0 64.8 L17.5 59.3 L20.3 54.0 L23.5 48.9 L27.0 44.0 L30.8 39.3 L34.9 34.9 L39.3 30.8 L44.0 27.0 L48.9 23.5 L54.0 20.3 L59.3 17.5 L64.8 15.0 L70.4 12.9 L76.2 11.1 L82.1 9.8 L88.0 8.8 L94.0 8.2 L100.0 8.0 L106.0 8.2 L112.0 8.8 L117.9 9.8 L123.8 11.1 L129.6 12.9 L135.2 15.0 L140.7 17.5 L146.0 20.3 L151.1 23.5 L156.0 27.0 L160.7 30.8 L165.1 34.9 L169.2 39.3 L173.0 44.0 L176.5 48.9 L179.7 54.0 L182.5 59.3 L185.0 64.8 L187.1 70.4 L188.9 76.2 L190.2 82.1 L191.2 88.0 L191.8 94.0 Z" stroke-width="9"/><path d="M34.9 34.9 L34.2 31.3 L37.7 26.5 L44.4 21.1 L53.4 15.1 L63.6 8.8 L74.1 2.4 L84.0 -3.7 L92.2 -9.5 L97.9 -14.5 L100.0 -18.7 L102.1 -14.5 L107.8 -9.5 L116.0 -3.7 L125.9 2.4 L136.4 8.8 L146.6 15.1 L155.6 21.1 L162.3 26.5 L165.8 31.3 L165.1 34.9 L168.7 34.2 L173.5 37.7 L178.9 44.4 L184.9 53.4 L191.2 63.6 L197.6 74.1 L203.7 84.0 L209.5 92.2 L214.5 97.9 L218.7 100.0 L214.5 102.1 L209.5 107.8 L203.7 116.0 L197.6 125.9 L191.2 136.4 L184.9 146.6 L178.9 155.6 L173.5 162.3 L168.7 165.8 L165.1 165.1 L165.8 168.7 L162.3 173.5 L155.6 178.9 L146.6 184.9 L136.4 191.2 L125.9 197.6 L116.0 203.7 L107.8 209.5 L102.1 214.5 L100.0 218.7 L97.9 214.5 L92.2 209.5 L84.0 203.7 L74.1 197.6 L63.6 191.2 L53.4 184.9 L44.4 178.9 L37.7 173.5 L34.2 168.7 L34.9 165.1 L31.3 165.8 L26.5 162.3 L21.1 155.6 L15.1 146.6 L8.8 136.4 L2.4 125.9 L-3.7 116.0 L-9.5 107.8 L-14.5 102.1 L-18.7 100.0 L-14.5 97.9 L-9.5 92.2 L-3.7 84.0 L2.4 74.1 L8.8 63.6 L15.1 53.4 L21.1 44.4 L26.5 37.7 L31.3 34.2 L34.9 34.9 Z" stroke-width="9"/><path d="M100.0 29.4 L149.9 149.9 L29.4 100.0 L149.9 50.1 L100.0 170.6 L50.1 50.1 L170.6 100.0 L50.1 149.9 Z" stroke-width="9"/><g stroke="none"><circle cx="100.0" cy="100.0" r="11.6"/></g></g></defs><use href="#o" x="0.9" y="0.9" stroke="rgba(28,27,24,0.14)" fill="rgba(28,27,24,0.14)"/><use href="#o" x="-0.9" y="-0.9" stroke="rgba(255,255,255,0.55)" fill="rgba(255,255,255,0.55)"/><use href="#o" stroke="url(#leaf)" fill="url(#leaf)"/></svg>
