<svg xmlns="http://www.w3.org/2000/svg" viewBox="-1.70 -1.70 203.40 203.40"><defs><linearGradient id="leaf" x1="0%" y1="22%" x2="100%" y2="78%"><stop offset="0%" stop-color="#8a6b1e"/><stop offset="50%" stop-color="#c8a63c"/><stop offset="100%" stop-color="#8a6b1e"/></linearGradient><g id="o" fill="none" stroke-linecap="round" stroke-linejoin="round"><path d="M197.0 100.0 L196.9 104.2 L196.6 108.5 L196.2 112.7 L195.5 116.8 L194.7 121.0 L193.7 125.1 L192.5 129.2 L191.2 133.2 L189.6 137.1 L187.9 141.0 L186.0 144.8 L184.0 148.5 L181.8 152.1 L179.5 155.6 L177.0 159.0 L174.3 162.4 L171.5 165.5 L168.6 168.6 L165.5 171.5 L162.4 174.3 L159.0 177.0 L155.6 179.5 L152.1 181.8 L148.5 184.0 L144.8 186.0 L141.0 187.9 L137.1 189.6 L133.2 191.2 L129.2 192.5 L125.1 193.7 L121.0 194.7 L116.8 195.5 L112.7 196.2 L108.5 196.6 L104.2 196.9 L100.0 197.0 L95.8 196.9 L91.5 196.6 L87.3 196.2 L83.2 195.5 L79.0 194.7 L74.9 193.7 L70.8 192.5 L66.8 191.2 L62.9 189.6 L59.0 187.9 L55.2 186.0 L51.5 184.0 L47.9 181.8 L44.4 179.5 L41.0 177.0 L37.6 174.3 L34.5 171.5 L31.4 168.6 L28.5 165.5 L25.7 162.4 L23.0 159.0 L20.5 155.6 L18.2 152.1 L16.0 148.5 L14.0 144.8 L12.1 141.0 L10.4 137.1 L8.8 133.2 L7.5 129.2 L6.3 125.1 L5.3 121.0 L4.5 116.8 L3.8 112.7 L3.4 108.5 L3.1 104.2 L3.0 100.0 L3.1 95.8 L3.4 91.5 L3.8 87.3 L4.5 83.2 L5.3 79.0 L6.3 74.9 L7.5 70.8 L8.8 66.8 L10.4 62.9 L12.1 59.0 L14.0 55.2 L16.0 51.5 L18.2 47.9 L20.5 44.4 L23.0 41.0 L25.7 37.6 L28.5 34.5 L31.4 31.4 L34.5 28.5 L37.6 25.7 L41.0 23.0 L44.4 20.5 L47.9 18.2 L51.5 16.0 L55.2 14.0 L59.0 12.1 L62.9 10.4 L66.8 8.8 L70.8 7.5 L74.9 6.3 L79.0 5.3 L83.2 4.5 L87.3 3.8 L91.5 3.4 L95.8 3.1 L100.0 3.0 L104.2 3.1 L108.5 3.4 L112.7 3.8 L116.8 4.5 L121.0 5.3 L125.1 6.3 L129.2 7.5 L133.2 8.8 L137.1 10.4 L141.0 12.1 L144.8 14.0 L148.5 16.0 L152.1 18.2 L155.6 20.5 L159.0 23.0 L162.4 25.7 L165.5 28.5 L168.6 31.4 L171.5 34.5 L174.3 37.6 L177.0 41.0 L179.5 44.4 L181.8 47.9 L184.0 51.5 L186.0 55.2 L187.9 59.0 L189.6 62.9 L191.2 66.8 L192.5 70.8 L193.7 74.9 L194.7 79.0 L195.5 83.2 L196.2 87.3 L196.6 91.5 L196.9 95.8 Z" stroke-width="2"/><path d="M172.6 100.0 L172.5 103.2 L172.3 106.3 L172.0 109.5 L171.5 112.6 L170.9 115.7 L170.1 118.8 L169.2 121.8 L168.2 124.8 L167.1 127.8 L165.8 130.7 L164.4 133.5 L162.9 136.3 L161.2 139.0 L159.5 141.6 L157.6 144.2 L155.6 146.7 L153.5 149.1 L151.3 151.3 L149.1 153.5 L146.7 155.6 L144.2 157.6 L141.6 159.5 L139.0 161.2 L136.3 162.9 L133.5 164.4 L130.7 165.8 L127.8 167.1 L124.8 168.2 L121.8 169.2 L118.8 170.1 L115.7 170.9 L112.6 171.5 L109.5 172.0 L106.3 172.3 L103.2 172.5 L100.0 172.6 L96.8 172.5 L93.7 172.3 L90.5 172.0 L87.4 171.5 L84.3 170.9 L81.2 170.1 L78.2 169.2 L75.2 168.2 L72.2 167.1 L69.3 165.8 L66.5 164.4 L63.7 162.9 L61.0 161.2 L58.4 159.5 L55.8 157.6 L53.3 155.6 L50.9 153.5 L48.7 151.3 L46.5 149.1 L44.4 146.7 L42.4 144.2 L40.5 141.6 L38.8 139.0 L37.1 136.3 L35.6 133.5 L34.2 130.7 L32.9 127.8 L31.8 124.8 L30.8 121.8 L29.9 118.8 L29.1 115.7 L28.5 112.6 L28.0 109.5 L27.7 106.3 L27.5 103.2 L27.4 100.0 L27.5 96.8 L27.7 93.7 L28.0 90.5 L28.5 87.4 L29.1 84.3 L29.9 81.2 L30.8 78.2 L31.8 75.2 L32.9 72.2 L34.2 69.3 L35.6 66.5 L37.1 63.7 L38.8 61.0 L40.5 58.4 L42.4 55.8 L44.4 53.3 L46.5 50.9 L48.7 48.7 L50.9 46.5 L53.3 44.4 L55.8 42.4 L58.4 40.5 L61.0 38.8 L63.7 37.1 L66.5 35.6 L69.3 34.2 L72.2 32.9 L75.2 31.8 L78.2 30.8 L81.2 29.9 L84.3 29.1 L87.4 28.5 L90.5 28.0 L93.7 27.7 L96.8 27.5 L100.0 27.4 L103.2 27.5 L106.3 27.7 L109.5 28.0 L112.6 28.5 L115.7 29.1 L118.8 29.9 L121.8 30.8 L124.8 31.8 L127.8 32.9 L130.7 34.2 L133.5 35.6 L136.3 37.1 L139.0 38.8 L141.6 40.5 L144.2 42.4 L146.7 44.4 L149.1 46.5 L151.3 48.7 L153.5 50.9 L155.6 53.3 L157.6 55.8 L159.5 58.4 L161.2 61.0 L162.9 63.7 L164.4 66.5 L165.8 69.3 L167.1 72.2 L168.2 75.2 L169.2 78.2 L170.1 81.2 L170.9 84.3 L171.5 87.4 L172.0 90.5 L172.3 93.7 L172.5 96.8 Z" stroke-width="2"/><path d="M100.0 36.9 L131.6 154.7 L45.3 68.4 L163.1 100.0 L45.3 131.6 L131.6 45.3 L100.0 163.1 L68.4 45.3 L154.7 131.6 L36.9 100.0 L154.7 68.4 L68.4 154.7 Z" stroke-width="3.4"/><path d="M111.7 56.2 L143.8 88.3 L132.1 132.1 L88.3 143.8 L56.2 111.7 L67.9 67.9 Z" stroke-width="3.4"/><path d="M132.1 67.9 L143.8 111.7 L111.7 143.8 L67.9 132.1 L56.2 88.3 L88.3 56.2 Z" stroke-width="3.4"/><path d="M115.1 100.0 L115.0 100.7 L115.0 101.3 L114.9 102.0 L114.8 102.6 L114.7 103.3 L114.6 103.9 L114.4 104.5 L114.2 105.2 L113.9 105.8 L113.7 106.4 L113.4 107.0 L113.0 107.5 L112.7 108.1 L112.3 108.6 L112.0 109.2 L111.5 109.7 L111.1 110.2 L110.7 110.7 L110.2 111.1 L109.7 111.5 L109.2 112.0 L108.6 112.3 L108.1 112.7 L107.5 113.0 L107.0 113.4 L106.4 113.7 L105.8 113.9 L105.2 114.2 L104.5 114.4 L103.9 114.6 L103.3 114.7 L102.6 114.8 L102.0 114.9 L101.3 115.0 L100.7 115.0 L100.0 115.1 L99.3 115.0 L98.7 115.0 L98.0 114.9 L97.4 114.8 L96.7 114.7 L96.1 114.6 L95.5 114.4 L94.8 114.2 L94.2 113.9 L93.6 113.7 L93.0 113.4 L92.5 113.0 L91.9 112.7 L91.4 112.3 L90.8 112.0 L90.3 111.5 L89.8 111.1 L89.3 110.7 L88.9 110.2 L88.5 109.7 L88.0 109.2 L87.7 108.6 L87.3 108.1 L87.0 107.5 L86.6 107.0 L86.3 106.4 L86.1 105.8 L85.8 105.2 L85.6 104.5 L85.4 103.9 L85.3 103.3 L85.2 102.6 L85.1 102.0 L85.0 101.3 L85.0 100.7 L84.9 100.0 L85.0 99.3 L85.0 98.7 L85.1 98.0 L85.2 97.4 L85.3 96.7 L85.4 96.1 L85.6 95.5 L85.8 94.8 L86.1 94.2 L86.3 93.6 L86.6 93.0 L87.0 92.5 L87.3 91.9 L87.7 91.4 L88.0 90.8 L88.5 90.3 L88.9 89.8 L89.3 89.3 L89.8 88.9 L90.3 88.5 L90.8 88.0 L91.4 87.7 L91.9 87.3 L92.5 87.0 L93.0 86.6 L93.6 86.3 L94.2 86.1 L94.8 85.8 L95.5 85.6 L96.1 85.4 L96.7 85.3 L97.4 85.2 L98.0 85.1 L98.7 85.0 L99.3 85.0 L100.0 84.9 L100.7 85.0 L101.3 85.0 L102.0 85.1 L102.6 85.2 L103.3 85.3 L103.9 85.4 L104.5 85.6 L105.2 85.8 L105.8 86.1 L106.4 86.3 L107.0 86.6 L107.5 87.0 L108.1 87.3 L108.6 87.7 L109.2 88.0 L109.7 88.5 L110.2 88.9 L110.7 89.3 L111.1 89.8 L111.5 90.3 L112.0 90.8 L112.3 91.4 L112.7 91.9 L113.0 92.5 L113.4 93.0 L113.7 93.6 L113.9 94.2 L114.2 94.8 L114.4 95.5 L114.6 96.1 L114.7 96.7 L114.8 97.4 L114.9 98.0 L115.0 98.7 L115.0 99.3 Z" stroke-width="2"/><g stroke="none"><circle cx="100.0" cy="15.2" r="3.2"/><circle cx="121.9" cy="18.1" r="1.8"/><circle cx="142.4" cy="26.6" r="3.2"/><circle cx="160.0" cy="40.0" r="1.8"/><circle cx="173.4" cy="57.6" r="3.2"/><circle cx="181.9" cy="78.1" r="1.8"/><circle cx="184.8" cy="100.0" r="3.2"/><circle cx="181.9" cy="121.9" r="1.8"/><circle cx="173.4" cy="142.4" r="3.2"/><circle cx="160.0" cy="160.0" r="1.8"/><circle cx="142.4" cy="173.4" r="3.2"/><circle cx="121.9" cy="181.9" r="1.8"/><circle cx="100.0" cy="184.8" r="3.2"/><circle cx="78.1" cy="181.9" r="1.8"/><circle cx="57.6" cy="173.4" r="3.2"/><circle cx="40.0" cy="160.0" r="1.8"/><circle cx="26.6" cy="142.4" r="3.2"/><circle cx="18.1" cy="121.9" r="1.8"/><circle cx="15.2" cy="100.0" r="3.2"/><circle cx="18.1" cy="78.1" r="1.8"/><circle cx="26.6" cy="57.6" r="3.2"/><circle cx="40.0" cy="40.0" r="1.8"/><circle cx="57.6" cy="26.6" r="3.2"/><circle cx="78.1" cy="18.1" r="1.8"/><circle cx="100.0" cy="100.0" r="5.6"/></g></g></defs><use href="#o" x="0.9" y="0.9" stroke="rgba(28,27,24,0.14)" fill="rgba(28,27,24,0.14)"/><use href="#o" x="-0.9" y="-0.9" stroke="rgba(255,255,255,0.55)" fill="rgba(255,255,255,0.55)"/><use href="#o" stroke="url(#leaf)" fill="url(#leaf)"/></svg>
